# xmcd
#
# Track frame offsets:
# 150
# 21450
# 40100
# 58850
# 73570
# 90860
# 105980
# 126000
# 140260
# 163285
#
# Disc length: 2421 seconds
#
#
# Revision: 11
# Processed by: cddbd v1.5.2PL0 Copyright (c) Steve Scherf et al.
# Submitted via: FreeRIP 2.945 
#
DISCID=8009730a
DTITLE=Whitesnake - Starkers In Tokyo
DYEAR=1998
DGENRE=Hard Rock
TTITLE0=Sailing Ships
TTITLE1=Too Many Tears
TTITLE2=The Deeper The Love
TTITLE3=Love Ain't No Stranger
TTITLE4=Can't Go On
TTITLE5=Give Me All Your Love
TTITLE6=Don't Fade Away
TTITLE7=Is This Love
TTITLE8=Here I Go Again
TTITLE9=Soldier Of Fortune
EXTD=
EXTT0=
EXTT1=
EXTT2=
EXTT3=
EXTT4=
EXTT5=
EXTT6=
EXTT7=
EXTT8=
EXTT9=
PLAYORDER=
